<svg width="52" height="51" viewBox="0 0 52 51" fill="none" xmlns="http://www.w3.org/2000/svg">
<g clip-path="url(#clip0_35_498)">
<path d="M50.9353 13.0897C50.1048 10.6422 48.8055 8.41491 47.0737 6.46906C45.3419 4.52321 43.2799 2.97457 40.9453 1.8662C38.6908 0.795595 36.2795 0.179064 33.7777 0.0336635C31.2758 -0.111737 28.8093 0.221303 26.4463 1.02304C23.9989 1.85361 21.7711 3.15287 19.8257 4.88468L6.46955 16.773C4.52411 18.5048 2.97547 20.5668 1.86669 22.9014C0.796082 25.1555 0.179551 27.5672 0.0341504 30.0691C-0.11125 32.5705 0.22179 35.0374 1.02393 37.4004C1.11044 37.6551 1.20182 37.9073 1.29808 38.1571L3.81132 36.1259C3.20616 34.226 2.95882 32.2492 3.07538 30.2457C3.19804 28.1374 3.71709 26.1063 4.61833 24.2079C5.55125 22.2434 6.85539 20.5075 8.49501 19.0483L21.8507 7.15992C23.4904 5.70063 25.3659 4.60647 27.4251 3.90749C29.4148 3.23248 31.4927 2.95183 33.601 3.07449C35.7089 3.19714 37.7404 3.7162 39.6384 4.61785C41.6029 5.55036 43.3392 6.8549 44.7985 8.49452C46.2577 10.1337 47.3519 12.0093 48.0509 14.0685C48.7263 16.0586 49.0065 18.1364 48.8839 20.2444C48.7612 22.3527 48.2422 24.3838 47.3409 26.2821C46.408 28.2467 45.1035 29.9825 43.4643 31.4418L30.1085 43.3302C28.4689 44.7894 26.5933 45.8836 24.5342 46.5826C22.544 47.2576 20.4662 47.5382 18.3583 47.4156C16.25 47.2929 14.2188 46.7739 12.3205 45.8722C11.6796 45.568 11.0631 45.224 10.4725 44.8414L7.99991 46.8397C8.94461 47.5232 9.95104 48.1194 11.0139 48.6239C13.268 49.6945 15.6797 50.311 18.1816 50.4564C18.5626 50.4788 18.9423 50.4897 19.3217 50.4897C21.432 50.4897 23.5099 50.1469 25.513 49.467C27.9604 48.6365 30.1881 47.3372 32.1336 45.6054L45.4893 33.7171C47.4352 31.9853 48.9838 29.9232 50.0922 27.5887C51.1628 25.3346 51.7793 22.9229 51.9247 20.4214C52.0701 17.9196 51.7375 15.4526 50.9353 13.0897Z" fill="white"/>
<path d="M43.2609 17.6031C40.7375 6.05711 25.1602 4.4573 20.3217 15.2149C19.8108 16.3692 19.5037 17.6047 19.3685 18.8576C19.2613 19.8259 19.1224 20.8303 18.5391 21.6329C17.5969 22.9906 16.1912 23.1202 14.7827 23.6831C13.7937 24.0896 12.8811 24.6822 12.1021 25.4145C5.98798 31.2914 10.5161 41.4719 19.0143 40.8054C21.186 40.6129 23.2634 39.598 24.741 37.9969C25.2613 37.4389 25.706 36.8089 26.0586 36.1315C26.3867 35.5141 26.628 34.8501 26.9675 34.2401C27.6031 33.031 28.7627 32.2723 30.1286 32.1959C30.6444 32.1541 31.1679 32.172 31.6894 32.1586C39.1462 32.0375 44.8388 24.9393 43.2629 17.6112L43.2613 17.6031H43.2609ZM33.1328 28.4045C28.5251 29.3566 24.0177 26.3929 23.0657 21.7852C22.1141 17.177 25.0777 12.67 29.6854 11.718C34.2932 10.7664 38.8006 13.73 39.7526 18.3378C40.7042 22.9455 37.7406 27.4529 33.1328 28.4045Z" fill="white"/>
</g>
<defs>
<clipPath id="clip0_35_498">
<rect width="51.9572" height="50.4894" fill="white"/>
</clipPath>
</defs>
</svg>
